<svg xmlns="http://www.w3.org/2000/svg" viewBox="0 0 220 135"><style>.f2{font:9px Times}</style><g style="font:16px Times"><text x="77%" y="91%"></text><title>CicadaNFT.com</title></g><g class="f2"><text x="5%" y="105%">Palette</text><text x="5%" y="112%" fill="#1932AF">1: [25,50,175]</text><text x="5%" y="119%" fill="#19AF4B">2: [25,175,75]</text><text x="5%" y="126%" fill="#E1C832">3: [225,200,50]</text><text x="5%" y="133%" fill="#E13232">4: [225,50,50]</text></g><g stroke-miterlimit="0" stroke="#000"><path fill="#1932af" d="m110.25 115.827-2.85 5.639 2.85 1.348 2.85-1.348z"/><path fill="#19af4b" d="m102.8 115.827 4.6 5.639 2.85-5.639z"/><path fill="#e1c832" d="m117.7 115.827-4.6 5.639-2.85-5.639z"/><path fill="#e13232" d="M110.25 115.827h-7.45l-2.6-5.85 10.05-.52z"/><path fill="#1932af" d="M110.25 115.827h7.45l2.6-5.85-10.05-.52z"/><path fill="#e13232" d="M110.25 103.606v5.85l-10.05.52-1.56-6.63z"/><path fill="#1932af" d="M110.25 103.606v5.85l10.05.52 1.56-6.63z"/><path fill="#1932af" d="M110.25 97.495v6.111l-11.61-.26-.91-6.11z"/><path fill="#19af4b" d="M110.25 97.495v6.111l11.61-.26.91-6.11z"/><path fill="#1932af" d="m110.25 90.865-13.04.13.52 6.24 12.52.26z"/><path fill="#1932af" d="m110.25 90.865 13.04.13-.52 6.24-12.52.26z"/><path fill="#1932af" d="m96.92 79.269.29 11.726 13.04-.13z"/><path fill="#19af4b" d="m123.58 79.269-.29 11.726-13.04-.13z"/><path fill="#19af4b" d="m96.92 79.269 13.33 11.596V78.254z"/><path fill="#1932af" d="m123.58 79.269-13.33 11.596V78.254z"/><path fill="#19af4b" d="m96.92 79.269 3.677-9.377 9.653 8.362z"/><path fill="#1932af" d="m123.58 79.269-3.677-9.377-9.653 8.362z"/><path fill="#e1c832" d="M110.25 70.583v7.67l-9.653-8.361z"/><path fill="#1932af" d="M110.25 70.583v7.67l9.653-8.361z"/><path fill="#19af4b" d="m96.92 79.269 3.677-9.377-3.493-5.148z"/><path fill="#1932af" d="m123.58 79.269-3.677-9.377 3.493-5.148z"/><path fill="#19af4b" d="m100.597 69.892-1.438-15.04-2.055 9.892z"/><path fill="#1932af" d="m119.903 69.892 1.437-15.04 2.056 9.892z"/><path fill="#19af4b" d="m110.25 70.583-6.711-18.802-2.942 18.11z"/><path fill="#1932af" d="m110.25 70.583 6.711-18.802 2.942 18.11z"/><path fill="#19af4b" d="m103.539 51.781-2.942 18.11-1.438-15.04z"/><path fill="#e1c832" d="m116.961 51.781 2.942 18.11 1.437-15.04z"/><path fill="#1932af" d="m99.678 47.368 3.86 4.413-4.379 3.07z"/><path fill="#1932af" d="m120.822 47.368-3.861 4.413 4.38 3.07z"/><path fill="#1932af" d="m99.16 54.852.518-7.484-2.299 1.195z"/><path fill="#1932af" d="m121.34 54.852-.518-7.484 2.298 1.195z"/><path fill="#e13232" d="m110.25 45.75-6.711 6.031-3.861-4.413 5.982-1.487z"/><path fill="#19af4b" d="m110.25 45.75 6.711 6.031 3.861-4.413-5.982-1.487z"/><path fill="#1932af" d="m99.678 47.368-.092-3.401 3.217-1.195 2.857 3.109z"/><path fill="#1932af" d="m120.822 47.368.092-3.401-3.218-1.195-2.856 3.109z"/><path fill="#19af4b" d="m110.25 45.75-6.251-6.564-1.196 3.586 2.857 3.109z"/><path fill="#1932af" d="m110.25 45.75 6.251-6.564 1.195 3.586-2.856 3.109z"/><path fill="#1932af" d="m99.586 43.967-1.287-3.126 2.482-2.942 3.218 1.287-1.196 3.586z"/><path fill="#1932af" d="m120.914 43.967 1.287-3.126-2.482-2.942-3.218 1.287 1.195 3.586z"/><path fill="#19af4b" d="M110.25 35.693V45.75l-6.251-6.565z"/><path fill="#19af4b" d="M110.25 35.693V45.75l6.251-6.565z"/><path fill="#e13232" d="m110.25 45.75-6.711 6.031 6.71 18.802 6.712-18.802z"/><g fill-opacity=".8"><animate id="awing" attributeName="fill-opacity" to="0" dur="2s" begin="1s;a57.end" fill="freeze"/><path d="m99.16 54.852-2.056 9.892-8.215-4.822z" fill="#e13232"><set id="a0" attributeName="fill-opacity" to=".8" dur="14.6s" begin="awing.end+1s"/></path><path d="m121.34 54.852 2.056 9.892 8.215-4.822z" fill="#1932af"><set id="a1" attributeName="fill-opacity" to=".8" dur="14.4s" begin="a0.begin+0.2s"/></path><path d="m78.735 45.416 2.613-10.066 17.811 19.502z" fill="#e13232"><set id="a2" attributeName="fill-opacity" to=".8" dur="14.2s" begin="a1.begin+0.2s"/></path><path d="m141.764 45.416-2.612-10.066-17.812 19.502z" fill="#1932af"><set id="a3" attributeName="fill-opacity" to=".8" dur="14s" begin="a2.begin+0.2s"/></path><path d="M78.735 45.416 59.044 50.77l29.845 9.152 10.27-5.07z" fill="#1932af"><set id="a4" attributeName="fill-opacity" to=".8" dur="13.8s" begin="a3.begin+0.2s"/></path><path d="m141.764 45.416 19.692 5.354-29.845 9.152-10.27-5.07z" fill="#19af4b"><set id="a5" attributeName="fill-opacity" to=".8" dur="13.6s" begin="a4.begin+0.2s"/></path><path d="m59.044 50.77 16.081 11.033 13.763-1.882z" fill="#19af4b"><set id="a6" attributeName="fill-opacity" to=".8" dur="13.4s" begin="a5.begin+0.2s"/></path><path d="m161.456 50.77-16.081 11.033-13.763-1.882z" fill="#1932af"><set id="a7" attributeName="fill-opacity" to=".8" dur="13.2s" begin="a6.begin+0.2s"/></path><path d="m97.104 64.744-8.216-4.823-24.512 3.352-5.517 6.435z" fill="#19af4b"><set id="a8" attributeName="fill-opacity" to=".8" dur="13s" begin="a7.begin+0.2s"/></path><path d="m123.396 64.744 8.216-4.823 24.511 3.352 5.518 6.435z" fill="#1932af"><set id="a9" attributeName="fill-opacity" to=".8" dur="12.8s" begin="a8.begin+0.2s"/></path><path d="m58.86 69.708 13.186 4.462 25.058-9.426z" fill="#1932af"><set id="a10" attributeName="fill-opacity" to=".8" dur="12.6s" begin="a9.begin+0.2s"/></path><path d="m161.64 69.708-13.186 4.462-25.058-9.426z" fill="#1932af"><set id="a11" attributeName="fill-opacity" to=".8" dur="12.4s" begin="a10.begin+0.2s"/></path><path d="M97.104 64.744 74.457 92.945l-8.19.91L81.51 70.61z" fill="#1932af"><set id="a12" attributeName="fill-opacity" to=".8" dur="12.2s" begin="a11.begin+0.2s"/></path><path d="m123.396 64.744 22.647 28.201 8.19.91-15.245-23.246z" fill="#1932af"><set id="a13" attributeName="fill-opacity" to=".8" dur="12s" begin="a12.begin+0.2s"/></path><path d="m91.359 91.645-4.55 4.94h-8.841l-3.51-3.64 22.646-28.201z" fill="#1932af"><set id="a14" attributeName="fill-opacity" to=".8" dur="11.8s" begin="a13.begin+0.2s"/></path><path d="m129.141 91.645 4.55 4.94h8.841l3.51-3.64-22.646-28.201z" fill="#19af4b"><set id="a15" attributeName="fill-opacity" to=".8" dur="11.6s" begin="a14.begin+0.2s"/></path><path d="m97.104 64.744-.184 14.525-5.561 12.376z" fill="#1932af"><set id="a16" attributeName="fill-opacity" to=".8" dur="11.4s" begin="a15.begin+0.2s"/></path><path d="m123.396 64.744.184 14.525 5.561 12.376z" fill="#e1c832"><set id="a17" attributeName="fill-opacity" to=".8" dur="11.2s" begin="a16.begin+0.2s"/></path><path d="m66.266 93.855-10.164-3.003L72.047 74.17l9.464-3.56z" fill="#1932af"><set id="a18" attributeName="fill-opacity" to=".8" dur="11s" begin="a17.begin+0.2s"/></path><path d="m154.233 93.855 10.165-3.003-15.945-16.683-9.465-3.56z" fill="#e13232"><set id="a19" attributeName="fill-opacity" to=".8" dur="10.8s" begin="a18.begin+0.2s"/></path><path d="m72.046 74.17-27.231 4.604 2.6 4.94 8.687 7.139z" fill="#19af4b"><set id="a20" attributeName="fill-opacity" to=".8" dur="10.6s" begin="a19.begin+0.2s"/></path><path d="m148.454 74.17 27.231 4.604-2.6 4.94-8.687 7.139z" fill="#19af4b"><set id="a21" attributeName="fill-opacity" to=".8" dur="10.4s" begin="a20.begin+0.2s"/></path><path d="m42.098 69.607.91 4.942 1.807 4.225 27.23-4.604-13.186-4.462z" fill="#e13232"><set id="a22" attributeName="fill-opacity" to=".8" dur="10.2s" begin="a21.begin+0.2s"/></path><path d="m178.402 69.607-.91 4.942-1.807 4.225-27.23-4.604 13.186-4.462z" fill="#19af4b"><set id="a23" attributeName="fill-opacity" to=".8" dur="10s" begin="a22.begin+0.2s"/></path><path d="m54.814 61.25-5.839 1.922-5.192 3.41-1.685 3.025 16.761.101 5.517-6.435z" fill="#19af4b"><set id="a24" attributeName="fill-opacity" to=".8" dur="9.8s" begin="a23.begin+0.2s"/></path><path d="m165.686 61.25 5.838 1.922 5.193 3.41 1.685 3.025-16.761.101-5.518-6.435z" fill="#1932af"><set id="a25" attributeName="fill-opacity" to=".8" dur="9.6s" begin="a24.begin+0.2s"/></path><path d="m59.044 50.77-4.23 10.48 9.562 2.023 10.749-1.47z" fill="#1932af"><set id="a26" attributeName="fill-opacity" to=".8" dur="9.4s" begin="a25.begin+0.2s"/></path><path d="m161.456 50.77 4.23 10.48-9.563 2.023-10.748-1.47z" fill="#1932af"><set id="a27" attributeName="fill-opacity" to=".8" dur="9.2s" begin="a26.begin+0.2s"/></path><path d="m59.044 50.77-4.23 10.48L36.06 49.115z" fill="#e1c832"><set id="a28" attributeName="fill-opacity" to=".8" dur="9s" begin="a27.begin+0.2s"/></path><path d="m161.456 50.77 4.23 10.48 18.753-12.135z" fill="#19af4b"><set id="a29" attributeName="fill-opacity" to=".8" dur="8.8s" begin="a28.begin+0.2s"/></path><path d="m50.52 40.5-4.85 4.603 2.896 4.912 10.478.755 1.929-7.307z" fill="#1932af"><set id="a30" attributeName="fill-opacity" to=".8" dur="8.6s" begin="a29.begin+0.2s"/></path><path d="m169.98 40.5 4.85 4.603-2.896 4.912-10.478.755-1.929-7.307z" fill="#1932af"><set id="a31" attributeName="fill-opacity" to=".8" dur="8.4s" begin="a30.begin+0.2s"/></path><path d="m60.973 43.463 5.87-3.531 11.892 5.484-19.691 5.354z" fill="#1932af"><set id="a32" attributeName="fill-opacity" to=".8" dur="8.2s" begin="a31.begin+0.2s"/></path><path d="m159.527 43.463-5.87-3.531-11.893 5.484 19.692 5.354z" fill="#e1c832"><set id="a33" attributeName="fill-opacity" to=".8" dur="8s" begin="a32.begin+0.2s"/></path><path d="m68.928 35.337 12.42.013-2.613 10.066-11.892-5.485z" fill="#19af4b"><set id="a34" attributeName="fill-opacity" to=".8" dur="7.8s" begin="a33.begin+0.2s"/></path><path d="m151.572 35.337-12.42.013 2.612 10.066 11.893-5.485z" fill="#1932af"><set id="a35" attributeName="fill-opacity" to=".8" dur="7.6s" begin="a34.begin+0.2s"/></path><path d="M59.963 20.064 81.348 35.35l-12.42-.013-10.296-8.774z" fill="#1932af"><set id="a36" attributeName="fill-opacity" to=".8" dur="7.4s" begin="a35.begin+0.2s"/></path><path d="M160.537 20.064 139.152 35.35l12.42-.013 10.296-8.774z" fill="#e1c832"><set id="a37" attributeName="fill-opacity" to=".8" dur="7.2s" begin="a36.begin+0.2s"/></path><path d="m32.251 22.347 16.29 8.598 10.09-4.382 1.332-6.499z" fill="#1932af"><set id="a38" attributeName="fill-opacity" to=".8" dur="7s" begin="a37.begin+0.2s"/></path><path d="m188.248 22.347-16.288 8.598-10.092-4.382-1.331-6.499z" fill="#1932af"><set id="a39" attributeName="fill-opacity" to=".8" dur="6.8s" begin="a38.begin+0.2s"/></path><path d="m32.251 22.347 16.29 8.598 1.978 9.554-4.85 4.604z" fill="#1932af"><set id="a40" attributeName="fill-opacity" to=".8" dur="6.6s" begin="a39.begin+0.2s"/></path><path d="m188.248 22.347-16.288 8.598-1.98 9.554 4.85 4.604z" fill="#19af4b"><set id="a41" attributeName="fill-opacity" to=".8" dur="6.4s" begin="a40.begin+0.2s"/></path><path d="m32.251 22.347-5.046 3.218 8.855 23.55 12.506.9z" fill="#19af4b"><set id="a42" attributeName="fill-opacity" to=".8" dur="6.2s" begin="a41.begin+0.2s"/></path><path d="m188.248 22.347 5.047 3.218-8.856 23.55-12.505.9z" fill="#1932af"><set id="a43" attributeName="fill-opacity" to=".8" dur="6s" begin="a42.begin+0.2s"/></path><path d="M27.205 25.565 22.062 36 36.06 49.115z" fill="#1932af"><set id="a44" attributeName="fill-opacity" to=".8" dur="5.8s" begin="a43.begin+0.2s"/></path><path d="M193.295 25.565 198.438 36l-13.999 13.115z" fill="#e1c832"><set id="a45" attributeName="fill-opacity" to=".8" dur="5.6s" begin="a44.begin+0.2s"/></path><path d="m13.742 27.549 8.32 8.45 5.143-10.434z" fill="#1932af"><set id="a46" attributeName="fill-opacity" to=".8" dur="5.4s" begin="a45.begin+0.2s"/></path><path d="m206.758 27.549-8.32 8.45-5.143-10.434z" fill="#19af4b"><set id="a47" attributeName="fill-opacity" to=".8" dur="5.2s" begin="a46.begin+0.2s"/></path><path d="m10.751 18.318 2.99 9.231 13.464-1.984 5.046-3.218z" fill="#1932af"><set id="a48" attributeName="fill-opacity" to=".8" dur="5s" begin="a47.begin+0.2s"/></path><path d="m209.749 18.318-2.99 9.231-13.464-1.984-5.047-3.218z" fill="#1932af"><set id="a49" attributeName="fill-opacity" to=".8" dur="4.8s" begin="a48.begin+0.2s"/></path><path d="m10.751 18.318.91-3.64 3.25-3.9 15.472 6.89 1.868 4.679z" fill="#1932af"><set id="a50" attributeName="fill-opacity" to=".8" dur="4.6s" begin="a49.begin+0.2s"/></path><path d="m209.749 18.318-.91-3.64-3.25-3.9-15.472 6.89-1.869 4.679z" fill="#e1c832"><set id="a51" attributeName="fill-opacity" to=".8" dur="4.4s" begin="a50.begin+0.2s"/></path><path d="m14.912 10.777 10.92-.26 6.501.65-1.95 6.501z" fill="#e1c832"><set id="a52" attributeName="fill-opacity" to=".8" dur="4.2s" begin="a51.begin+0.2s"/></path><path d="m205.588 10.777-10.92-.26-6.501.65 1.95 6.501z" fill="#1932af"><set id="a53" attributeName="fill-opacity" to=".8" dur="4s" begin="a52.begin+0.2s"/></path><path d="m32.333 11.167 27.63 8.897-27.712 2.283-1.868-4.679z" fill="#1932af"><set id="a54" attributeName="fill-opacity" to=".8" dur="3.8s" begin="a53.begin+0.2s"/></path><path d="m188.167 11.167-27.63 8.897 27.711 2.283 1.869-4.679z" fill="#1932af"><set id="a55" attributeName="fill-opacity" to=".8" dur="3.6s" begin="a54.begin+0.2s"/></path><path d="m58.632 26.563 10.296 8.774-2.085 4.595-5.87 3.53L50.519 40.5l-1.979-9.554z" fill="#19af4b"><set id="a56" attributeName="fill-opacity" to=".8" dur="3.4s" begin="a55.begin+0.2s"/></path><path d="m161.868 26.563-10.296 8.774 2.085 4.595 5.87 3.53 10.454-2.963 1.979-9.554z" fill="#1932af"><set id="a57" attributeName="fill-opacity" to=".8" dur="3.2s" begin="a56.begin+0.2s"/></path></g></g><text x="69%" y="91%" class="f2"></text></svg>