<svg xmlns="http://www.w3.org/2000/svg" viewBox="0 0 220 135"><desc>CICADANFT.COM 8898 10</desc><g stroke-miterlimit="0" stroke-width=".1" stroke="#fff"><path fill="#4E32AD" d="m110.25 115.827-2.85 5.639 2.85 1.348 2.85-1.348z"/><path fill="#9B3569" d="m102.8 115.827 4.6 5.639 2.85-5.639z"/><path fill="#218CC1" d="m117.7 115.827-4.6 5.639-2.85-5.639z"/><path fill="#4E32AD" d="M110.25 115.827h-7.45l-2.6-5.85 10.05-.52z"/><path fill="#2123D2" d="M110.25 115.827h7.45l2.6-5.85-10.05-.52z"/><path fill="#9B3569" d="M110.25 103.606v5.85l-10.05.52-1.56-6.63z"/><path fill="#218CC1" d="M110.25 103.606v5.85l10.05.52 1.56-6.63z"/><path fill="#4E32AD" d="M110.25 97.495v6.111l-11.61-.26-.91-6.11z"/><path fill="#C84444" d="M110.25 97.495v6.111l11.61-.26.91-6.11z"/><path fill="#4E32AD" d="m110.25 90.865-13.04.13.52 6.24 12.52.26z"/><path fill="#C84444" d="m110.25 90.865 13.04.13-.52 6.24-12.52.26z"/><path fill="#2123D2" d="m96.92 79.269.29 11.726 13.04-.13z"/><path fill="#C84444" d="m123.58 79.269-.29 11.726-13.04-.13z"/><path fill="#9B3569" d="m96.92 79.269 13.33 11.596V78.254Z"/><path fill="#9B3569" d="m123.58 79.269-13.33 11.596V78.254Z"/><path fill="#4E32AD" d="m96.92 79.269 3.677-9.377 9.653 8.362z"/><path fill="#4E9B9B" d="m123.58 79.269-3.677-9.377-9.653 8.362z"/><path fill="#4E32AD" d="M110.25 70.583v7.67l-9.653-8.361z"/><path fill="#4E9B9B" d="M110.25 70.583v7.67l9.653-8.361z"/><path fill="#9B3569" d="m96.92 79.269 3.677-9.377-3.493-5.148z"/><path fill="#4E32AD" d="m123.58 79.269-3.677-9.377 3.493-5.148z"/><path fill="#C84444" d="m100.597 69.892-1.438-15.04-2.055 9.892Z"/><path fill="#C84444" d="m119.903 69.892 1.437-15.04 2.056 9.892z"/><path fill="#2123D2" d="m110.25 70.583-6.711-18.802-2.942 18.11z"/><path fill="#2123D2" d="m110.25 70.583 6.711-18.802 2.942 18.11z"/><path fill="#C84444" d="m103.539 51.781-2.942 18.11-1.438-15.04z"/><path fill="#C84444" d="m116.961 51.781 2.942 18.11 1.437-15.04z"/><path fill="#4E9B9B" d="m99.678 47.368 3.86 4.413-4.379 3.07z"/><path fill="#C84444" d="m120.822 47.368-3.861 4.413 4.38 3.07z"/><path fill="#C84444" d="m99.16 54.852.518-7.484-2.299 1.195z"/><path fill="#4E9B9B" d="m121.34 54.852-.518-7.484 2.298 1.195z"/><path fill="#4E9B9B" d="m110.25 45.75-6.711 6.031-3.861-4.413 5.982-1.487z"/><path fill="#2123D2" d="m110.25 45.75 6.711 6.031 3.861-4.413-5.982-1.487z"/><path fill="#4E32AD" d="m99.678 47.368-.092-3.401 3.217-1.195 2.857 3.109z"/><path fill="#4E32AD" d="m120.822 47.368.092-3.401-3.218-1.195-2.856 3.109z"/><path fill="#4E32AD" d="m110.25 45.75-6.251-6.564-1.196 3.586 2.857 3.109z"/><path fill="#4E9B9B" d="m110.25 45.75 6.251-6.564 1.195 3.586-2.856 3.109z"/><path fill="#4E32AD" d="m99.586 43.967-1.287-3.126 2.482-2.942 3.218 1.287-1.196 3.586z"/><path fill="#4E32AD" d="m120.914 43.967 1.287-3.126-2.482-2.942-3.218 1.287 1.195 3.586z"/><path fill="#4E32AD" d="M110.25 35.693V45.75l-6.251-6.565z"/><path fill="#4E9B9B" d="M110.25 35.693V45.75l6.251-6.565z"/><path fill="#9B3569" d="m110.25 45.75-6.711 6.031 6.71 18.802 6.712-18.802z"/><g fill-opacity=".8"><animate id="b" attributeName="fill-opacity" to="0" dur="1s" begin="1s;a.end" fill="freeze"/><path d="m99.16 54.852-2.056 9.892-8.215-4.822Z" fill="#4E32AD"><set id="c" attributeName="fill-opacity" to=".8" dur="9s" begin="b.end+0s"/></path><path d="m121.34 54.852 2.056 9.892 8.215-4.822z" fill="#C84444"><set id="d" attributeName="fill-opacity" to=".8" dur="8.875s" begin="c.begin+0.125s"/></path><path d="m78.735 45.416 2.613-10.066 17.811 19.502z" fill="#218CC1"><set id="e" attributeName="fill-opacity" to=".8" dur="8.75s" begin="d.begin+0.125s"/></path><path d="m141.764 45.416-2.612-10.066-17.812 19.502z" fill="#4E9B9B"><set id="f" attributeName="fill-opacity" to=".8" dur="8.625s" begin="e.begin+0.125s"/></path><path d="M78.735 45.416 59.044 50.77l29.845 9.152 10.27-5.07Z" fill="#9B3569"><set id="g" attributeName="fill-opacity" to=".8" dur="8.5s" begin="f.begin+0.125s"/></path><path d="m141.764 45.416 19.692 5.354-29.845 9.152-10.27-5.07z" fill="#2123D2"><set id="h" attributeName="fill-opacity" to=".8" dur="8.375s" begin="g.begin+0.125s"/></path><path d="m59.044 50.77 16.081 11.033 13.763-1.882Z" fill="#4E32AD"><set id="i" attributeName="fill-opacity" to=".8" dur="8.25s" begin="h.begin+0.125s"/></path><path d="m161.456 50.77-16.081 11.033-13.763-1.882z" fill="#C84444"><set id="j" attributeName="fill-opacity" to=".8" dur="8.125s" begin="i.begin+0.125s"/></path><path d="m97.104 64.744-8.216-4.823-24.512 3.352-5.517 6.435Z" fill="#4E32AD"><set id="k" attributeName="fill-opacity" to=".8" dur="8s" begin="j.begin+0.125s"/></path><path d="m123.396 64.744 8.216-4.823 24.511 3.352 5.518 6.435z" fill="#4E32AD"><set id="l" attributeName="fill-opacity" to=".8" dur="7.875s" begin="k.begin+0.125s"/></path><path d="m58.86 69.708 13.186 4.462 25.058-9.426z" fill="#4E9B9B"><set id="m" attributeName="fill-opacity" to=".8" dur="7.75s" begin="l.begin+0.125s"/></path><path d="m161.64 69.708-13.186 4.462-25.058-9.426Z" fill="#2123D2"><set id="n" attributeName="fill-opacity" to=".8" dur="7.625s" begin="m.begin+0.125s"/></path><path d="M97.104 64.744 74.457 92.945l-8.19.91L81.51 70.61Z" fill="#4E32AD"><set id="o" attributeName="fill-opacity" to=".8" dur="7.5s" begin="n.begin+0.125s"/></path><path d="m123.396 64.744 22.647 28.201 8.19.91-15.245-23.246z" fill="#4E32AD"><set id="p" attributeName="fill-opacity" to=".8" dur="7.375s" begin="o.begin+0.125s"/></path><path d="m91.359 91.645-4.55 4.94h-8.841l-3.51-3.64 22.646-28.201Z" fill="#218CC1"><set id="q" attributeName="fill-opacity" to=".8" dur="7.25s" begin="p.begin+0.125s"/></path><path d="m129.141 91.645 4.55 4.94h8.841l3.51-3.64-22.646-28.201z" fill="#C84444"><set id="r" attributeName="fill-opacity" to=".8" dur="7.125s" begin="q.begin+0.125s"/></path><path d="m97.104 64.744-.184 14.525-5.561 12.376Z" fill="#C84444"><set id="s" attributeName="fill-opacity" to=".8" dur="7s" begin="r.begin+0.125s"/></path><path d="m123.396 64.744.184 14.525 5.561 12.376z" fill="#C84444"><set id="t" attributeName="fill-opacity" to=".8" dur="6.875s" begin="s.begin+0.125s"/></path><path d="m66.266 93.855-10.164-3.003L72.047 74.17l9.464-3.56z" fill="#4E32AD"><set id="u" attributeName="fill-opacity" to=".8" dur="6.75s" begin="t.begin+0.125s"/></path><path d="m154.233 93.855 10.165-3.003-15.945-16.683-9.465-3.56z" fill="#2123D2"><set id="v" attributeName="fill-opacity" to=".8" dur="6.625s" begin="u.begin+0.125s"/></path><path d="m72.046 74.17-27.231 4.604 2.6 4.94 8.687 7.139z" fill="#2123D2"><set id="w" attributeName="fill-opacity" to=".8" dur="6.5s" begin="v.begin+0.125s"/></path><path d="m148.454 74.17 27.231 4.604-2.6 4.94-8.687 7.139z" fill="#2123D2"><set id="x" attributeName="fill-opacity" to=".8" dur="6.375s" begin="w.begin+0.125s"/></path><path d="m42.098 69.607.91 4.942 1.807 4.225 27.23-4.604-13.186-4.462z" fill="#2123D2"><set id="y" attributeName="fill-opacity" to=".8" dur="6.25s" begin="x.begin+0.125s"/></path><path d="m178.402 69.607-.91 4.942-1.807 4.225-27.23-4.604 13.186-4.462z" fill="#2123D2"><set id="z" attributeName="fill-opacity" to=".8" dur="6.125s" begin="y.begin+0.125s"/></path><path d="m54.814 61.25-5.839 1.922-5.192 3.41-1.685 3.025 16.761.101 5.517-6.435z" fill="#2123D2"><set id="A" attributeName="fill-opacity" to=".8" dur="6s" begin="z.begin+0.125s"/></path><path d="m165.686 61.25 5.838 1.922 5.193 3.41 1.685 3.025-16.761.101-5.518-6.435z" fill="#4E32AD"><set id="B" attributeName="fill-opacity" to=".8" dur="5.875s" begin="A.begin+0.125s"/></path><path d="m59.044 50.77-4.23 10.48 9.562 2.023 10.749-1.47z" fill="#2123D2"><set id="C" attributeName="fill-opacity" to=".8" dur="5.75s" begin="B.begin+0.125s"/></path><path d="m161.456 50.77 4.23 10.48-9.563 2.023-10.748-1.47z" fill="#2123D2"><set id="D" attributeName="fill-opacity" to=".8" dur="5.625s" begin="C.begin+0.125s"/></path><path d="m59.044 50.77-4.23 10.48L36.06 49.115Z" fill="#4E32AD"><set id="E" attributeName="fill-opacity" to=".8" dur="5.5s" begin="D.begin+0.125s"/></path><path d="m161.456 50.77 4.23 10.48 18.753-12.135z" fill="#C84444"><set id="F" attributeName="fill-opacity" to=".8" dur="5.375s" begin="E.begin+0.125s"/></path><path d="m50.52 40.5-4.85 4.603 2.896 4.912 10.478.755 1.929-7.307z" fill="#2123D2"><set id="G" attributeName="fill-opacity" to=".8" dur="5.25s" begin="F.begin+0.125s"/></path><path d="m169.98 40.5 4.85 4.603-2.896 4.912-10.478.755-1.929-7.307z" fill="#2123D2"><set id="H" attributeName="fill-opacity" to=".8" dur="5.125s" begin="G.begin+0.125s"/></path><path d="m60.973 43.463 5.87-3.531 11.892 5.484-19.691 5.354z" fill="#4E9B9B"><set id="I" attributeName="fill-opacity" to=".8" dur="5s" begin="H.begin+0.125s"/></path><path d="m159.527 43.463-5.87-3.531-11.893 5.484 19.692 5.354z" fill="#C84444"><set id="J" attributeName="fill-opacity" to=".8" dur="4.875s" begin="I.begin+0.125s"/></path><path d="m68.928 35.337 12.42.013-2.613 10.066-11.892-5.485z" fill="#2123D2"><set id="K" attributeName="fill-opacity" to=".8" dur="4.75s" begin="J.begin+0.125s"/></path><path d="m151.572 35.337-12.42.013 2.612 10.066 11.893-5.485z" fill="#4E32AD"><set id="L" attributeName="fill-opacity" to=".8" dur="4.625s" begin="K.begin+0.125s"/></path><path d="M59.963 20.064 81.348 35.35l-12.42-.013-10.296-8.774z" fill="#218CC1"><set id="M" attributeName="fill-opacity" to=".8" dur="4.5s" begin="L.begin+0.125s"/></path><path d="M160.537 20.064 139.152 35.35l12.42-.013 10.296-8.774z" fill="#218CC1"><set id="N" attributeName="fill-opacity" to=".8" dur="4.375s" begin="M.begin+0.125s"/></path><path d="m32.251 22.347 16.29 8.598 10.09-4.382 1.332-6.499z" fill="#C84444"><set id="O" attributeName="fill-opacity" to=".8" dur="4.25s" begin="N.begin+0.125s"/></path><path d="m188.248 22.347-16.288 8.598-10.092-4.382-1.331-6.499z" fill="#2123D2"><set id="P" attributeName="fill-opacity" to=".8" dur="4.125s" begin="O.begin+0.125s"/></path><path d="m32.251 22.347 16.29 8.598 1.978 9.554-4.85 4.604z" fill="#4E32AD"><set id="Q" attributeName="fill-opacity" to=".8" dur="4s" begin="P.begin+0.125s"/></path><path d="m188.248 22.347-16.288 8.598-1.98 9.554 4.85 4.604z" fill="#9B3569"><set id="R" attributeName="fill-opacity" to=".8" dur="3.875s" begin="Q.begin+0.125s"/></path><path d="m32.251 22.347-5.046 3.218 8.855 23.55 12.506.9z" fill="#4E9B9B"><set id="S" attributeName="fill-opacity" to=".8" dur="3.75s" begin="R.begin+0.125s"/></path><path d="m188.248 22.347 5.047 3.218-8.856 23.55-12.505.9z" fill="#C84444"><set id="T" attributeName="fill-opacity" to=".8" dur="3.625s" begin="S.begin+0.125s"/></path><path d="M27.205 25.565 22.062 36 36.06 49.115Z" fill="#9B3569"><set id="U" attributeName="fill-opacity" to=".8" dur="3.5s" begin="T.begin+0.125s"/></path><path d="M193.295 25.565 198.438 36l-13.999 13.115z" fill="#2123D2"><set id="V" attributeName="fill-opacity" to=".8" dur="3.375s" begin="U.begin+0.125s"/></path><path d="m13.742 27.549 8.32 8.45 5.143-10.434z" fill="#2123D2"><set id="W" attributeName="fill-opacity" to=".8" dur="3.25s" begin="V.begin+0.125s"/></path><path d="m206.758 27.549-8.32 8.45-5.143-10.434z" fill="#C84444"><set id="X" attributeName="fill-opacity" to=".8" dur="3.125s" begin="W.begin+0.125s"/></path><path d="m10.751 18.318 2.99 9.231 13.464-1.984 5.046-3.218z" fill="#4E32AD"><set id="Y" attributeName="fill-opacity" to=".8" dur="3s" begin="X.begin+0.125s"/></path><path d="m209.749 18.318-2.99 9.231-13.464-1.984-5.047-3.218z" fill="#9B3569"><set id="Z" attributeName="fill-opacity" to=".8" dur="2.875s" begin="Y.begin+0.125s"/></path><path d="m10.751 18.318.91-3.64 3.25-3.9 15.472 6.89 1.868 4.679z" fill="#C84444"><set id="aa" attributeName="fill-opacity" to=".8" dur="2.75s" begin="Z.begin+0.125s"/></path><path d="m209.749 18.318-.91-3.64-3.25-3.9-15.472 6.89-1.869 4.679z" fill="#4E32AD"><set id="ab" attributeName="fill-opacity" to=".8" dur="2.625s" begin="aa.begin+0.125s"/></path><path d="m14.912 10.777 10.92-.26 6.501.65-1.95 6.501z" fill="#9B3569"><set id="ac" attributeName="fill-opacity" to=".8" dur="2.5s" begin="ab.begin+0.125s"/></path><path d="m205.588 10.777-10.92-.26-6.501.65 1.95 6.501z" fill="#2123D2"><set id="ad" attributeName="fill-opacity" to=".8" dur="2.375s" begin="ac.begin+0.125s"/></path><path d="m32.333 11.167 27.63 8.897-27.712 2.283-1.868-4.679z" fill="#2123D2"><set id="ae" attributeName="fill-opacity" to=".8" dur="2.25s" begin="ad.begin+0.125s"/></path><path d="m188.167 11.167-27.63 8.897 27.711 2.283 1.869-4.679z" fill="#4E32AD"><set id="af" attributeName="fill-opacity" to=".8" dur="2.125s" begin="ae.begin+0.125s"/></path><path d="m58.632 26.563 10.296 8.774-2.085 4.595-5.87 3.53L50.519 40.5l-1.979-9.554z" fill="#4E32AD"><set id="ag" attributeName="fill-opacity" to=".8" dur="2s" begin="af.begin+0.125s"/></path><path d="m161.868 26.563-10.296 8.774 2.085 4.595 5.87 3.53 10.454-2.963 1.979-9.554z" fill="#4E32AD"><set id="a" attributeName="fill-opacity" to=".8" dur="1.875s" begin="ag.begin+0.125s"/></path></g></g></svg>